HIERARCHY
ROOT hip
{
	OFFSET 0.000000 0.000000 0.000000 
	CHANNELS 6 Xposition Yposition Zposition Xrotation Zrotation Yrotation
	JOINT abdomen
	{
		OFFSET 0.000000 3.402643 0.000000 
		CHANNELS 3 Xrotation Zrotation Yrotation
		JOINT chest
		{
			OFFSET 0.000000 8.438565 -0.680529 
			CHANNELS 3 Xrotation Zrotation Yrotation
			JOINT neck
			{
				OFFSET 0.000000 10.207942 -0.272212 
				CHANNELS 3 Xrotation Zrotation Yrotation
				JOINT head
				{
					OFFSET 0.000000 3.130431 0.000000 
					CHANNELS 3 Xrotation Zrotation Yrotation
					End Site
					{
						OFFSET 0.000000 3.130435 0.000000 
					}
				}
			}
			JOINT lCollar
			{
				OFFSET 3.470700 6.669187 -0.816635 
				CHANNELS 3 Yrotation Zrotation Xrotation
				JOINT lShldr
				{
					OFFSET 3.198488 0.000000 0.000000 
					CHANNELS 3 Zrotation Yrotation Xrotation
					JOINT lForeArm
					{
						OFFSET 10.139888 0.000000 0.000000 
						CHANNELS 3 Yrotation Zrotation Xrotation
						JOINT lHand
						{
							OFFSET 8.370511 0.000000 0.000000 
							CHANNELS 3 Zrotation Yrotation Xrotation
							End Site
							{
								OFFSET 4.083176 0.000000 0.000000 
							}
						}
					}
				}
			}
			JOINT rCollar
			{
				OFFSET -3.470700 6.669187 -0.816635 
				CHANNELS 3 Yrotation Zrotation Xrotation
				JOINT rShldr
				{
					OFFSET -3.198488 0.000000 0.000000 
					CHANNELS 3 Zrotation Yrotation Xrotation
					JOINT rForeArm
					{
						OFFSET -10.139888 0.000000 0.000000 
						CHANNELS 3 Yrotation Zrotation Xrotation
						JOINT rHand
						{
							OFFSET -8.370511 0.000000 0.000000 
							CHANNELS 3 Zrotation Yrotation Xrotation
							End Site
							{
								OFFSET -4.083176 0.000000 0.000000 
							}
						}
					}
				}
			}
		}
	}
	JOINT lThigh
	{
		OFFSET 5.308129 -1.633274 1.361059 
		CHANNELS 3 Xrotation Zrotation Yrotation
		JOINT lShin
		{
			OFFSET -2.041588 -20.007561 0.000000 
			CHANNELS 3 Xrotation Zrotation Yrotation
			JOINT lFoot
			{
				OFFSET 0.000000 -19.190928 -1.224953 
				CHANNELS 3 Xrotation Yrotation Zrotation
				End Site
				{
					OFFSET 0.000000 -2.449906 4.627600 
				}
			}
		}
	}
	JOINT rThigh
	{
		OFFSET -5.308129 -1.633274 1.361059 
		CHANNELS 3 Xrotation Zrotation Yrotation
		JOINT rShin
		{
			OFFSET 2.041588 -20.007561 0.000000 
			CHANNELS 3 Xrotation Zrotation Yrotation
			JOINT rFoot
			{
				OFFSET 0.000000 -19.190928 -1.224953 
				CHANNELS 3 Xrotation Yrotation Zrotation
				End Site
				{
					OFFSET 0.000000 -2.449906 4.627600 
				}
			}
		}
	}
}
MOTION
Frames: 18
Frame Time: 0.033333
5.190243 42.293179 46.838539 -5.634766 5.273525 -151.181152 17.431641 4.218750 -2.910156 -9.472655 -1.923828 -3.691734 -8.798828 -0.351562 -11.259768 15.820313 10.019531 -10.340098 -2.656250 5.878906 0.262672 -90.957031 -35.341797 59.574432 -49.814453 -2.939453 -27.861326 19.707031 3.525390 1.113281 8.955078 4.472656 -0.341797 73.046875 27.548826 3.197877 69.697266 3.076172 -33.564449 -16.191406 -13.701172 3.357064 -3.338758 16.107021 0.995244 35.073311 -1.022892 -2.353515 145.988541 -194.630875 182.636765 -44.111397 -13.545105 -11.373523 55.643135 -0.378359 2.767722 -19.693371 1.139449 7.691529 
5.202817 42.290611 46.821449 -5.634766 5.273525 -151.181152 17.617189 4.394531 -2.860580 -9.472655 -2.099609 -3.691764 -8.964845 -0.361328 -11.259767 15.996095 10.019532 -10.340097 -2.480469 6.054688 0.253906 -91.142578 -35.419922 59.847858 -49.873047 -3.046875 -27.988281 19.707031 3.525390 1.113281 8.779296 4.648438 -0.361328 73.007813 27.753906 3.398438 69.501953 3.115234 -33.398968 -16.347654 -13.339845 3.298528 -3.183415 16.316639 1.152635 34.718182 -1.339594 -2.282295 -34.072811 14.355651 2.657986 -44.090031 -13.534291 -11.552499 55.633419 -0.371089 2.770971 -19.704075 1.283251 7.575752 
5.225522 42.295868 46.804485 -5.458984 5.087891 -151.171005 17.617188 4.345703 -2.695313 -9.121094 -2.285156 -3.682029 -9.326173 -0.175781 -11.249999 15.996095 10.195313 -10.340068 -2.480469 6.230469 0.263672 -91.142578 -35.585934 60.033382 -50.029297 -2.958984 -27.998049 20.058594 3.349609 1.084555 8.779296 4.648438 -0.361328 73.105469 27.763670 3.476563 69.648438 3.183594 -33.339844 -16.337891 -13.164063 3.300781 -2.802646 16.179411 1.560772 34.169598 -1.100911 -2.689213 -34.193478 14.554303 2.821463 -44.090031 -13.534294 -11.552499 55.633419 -0.371088 2.770971 -19.894211 1.131977 7.683935 
5.262755 42.325043 46.792393 -5.458984 5.087891 -151.356552 17.968750 4.345703 -2.694572 -9.121094 -2.285156 -3.682029 -9.501953 -0.537109 -11.435564 15.820313 10.546875 -10.340010 -2.304688 6.054688 0.233345 -90.957031 -35.664063 60.287273 -50.097656 -2.939453 -28.231922 20.234373 3.339844 1.074219 8.603516 4.648438 -0.341797 73.105469 27.763670 3.476563 69.931641 3.154297 -33.281784 -16.503906 -13.154297 3.288793 -2.802646 16.179411 1.560772 34.361912 -1.100941 -2.514664 -33.978962 14.641569 2.877270 -43.894009 -13.524446 -11.720753 55.612339 -0.537042 3.218701 -19.753315 0.893077 7.548372 
5.322447 42.390224 46.805214 -5.449218 4.921875 -151.161270 18.134768 4.179688 -2.743429 -8.769531 -2.460938 -3.682059 -10.556642 -0.537109 -11.611328 15.996095 10.722657 -10.515761 -1.953125 6.230469 0.205078 -91.328125 -36.181641 60.693363 -50.097656 -2.939453 -28.231922 20.234373 3.515625 1.074219 8.427734 4.658204 -0.332824 73.203125 27.929688 3.393246 70.078125 3.056641 -33.291019 -16.269531 -12.861329 3.142358 -3.349359 16.267170 1.346524 34.897583 -1.022869 -2.344555 -33.415627 14.226692 2.046183 -43.904434 -13.534613 -11.554147 55.276470 -0.185389 3.022371 -19.645329 0.624432 7.185100 
5.394348 42.533661 46.891026 -5.976562 4.570313 -150.458206 18.662109 3.886719 -3.007812 -8.769531 -2.636719 -3.857871 -11.425781 -0.712891 -11.963013 16.162109 11.064454 -10.898436 -1.767578 6.406250 0.195309 -91.337891 -36.337894 61.054691 -50.449219 -2.988281 -27.050270 20.478516 4.453125 1.397243 8.603516 4.306641 -0.292969 73.242188 27.724611 3.188138 70.644531 3.212891 -34.267578 -16.777344 -12.656251 3.103329 -4.216449 15.860418 1.291808 35.248817 -1.017289 -2.370515 -32.444698 13.719996 1.505805 -43.874336 -14.217576 -11.664325 54.925941 -0.185536 2.987064 -18.979300 0.378098 7.009287 
5.499329 42.763153 47.087444 -7.031250 4.042969 -149.403595 18.994139 3.085937 -3.408203 -8.779297 -3.164063 -4.208984 -13.017578 -0.537109 -12.314452 16.347656 11.601563 -11.218739 -1.777344 6.933594 0.205078 -91.728516 -36.660156 61.621094 -50.791016 -2.939453 -25.263170 20.732422 5.390625 1.708984 8.427733 4.130859 -0.253906 73.476563 27.509768 2.826777 71.494141 3.212891 -34.658203 -17.099609 -12.285157 3.074094 -5.623067 15.228253 1.343986 34.900681 -1.364740 -2.095433 -31.063354 12.150895 0.318654 -44.391296 -15.613729 -11.319626 54.215336 -0.361248 3.062829 -18.106073 0.193545 7.289542 
5.666079 43.059425 47.414837 -8.623047 3.339844 -148.007813 19.687500 2.333984 -3.984375 -9.130859 -3.867188 -4.570313 -14.941407 -0.361328 -13.017577 16.513672 12.304688 -11.787108 -1.777344 7.636718 0.233077 -92.128906 -36.982422 62.289051 -50.820313 -2.802735 -24.179686 21.025391 4.560547 1.523437 8.251954 3.789063 -0.186192 73.984367 26.894533 1.943359 72.724609 3.183594 -34.795467 -16.904299 -11.943360 3.095703 -6.968876 14.239927 1.591336 33.307323 -1.090957 -2.467441 -29.110949 9.837668 -1.384578 -45.279823 -17.029619 -10.762194 52.999710 -0.361283 2.642780 -16.781715 -0.502020 7.064609 
5.883977 43.334206 47.887737 -10.380859 3.164063 -146.416260 20.214844 1.914062 -4.472656 -9.140626 -4.570313 -4.921875 -17.578125 -0.185547 -13.896484 16.699221 13.007813 -12.439209 -1.806641 8.515625 0.429687 -92.724609 -37.548824 62.982330 -51.083984 -2.714844 -23.203291 21.308596 3.789063 1.172520 7.910156 3.066406 -0.253906 74.843750 26.777344 0.814947 74.150391 3.027344 -34.570831 -16.689455 -12.001953 2.910156 -8.920984 13.761796 1.324622 31.748697 -1.178255 -1.711524 -27.291208 6.128270 -3.866440 -46.616760 -18.386433 -9.591437 52.099190 -0.185570 3.044667 -14.588970 -1.590660 6.463264 
6.112129 43.484352 48.486626 -11.953124 3.339844 -145.184967 21.093750 1.962891 -4.638338 -9.492188 -5.087891 -5.283204 -20.214844 -0.185547 -14.423861 16.865232 13.349608 -13.017579 -1.640625 9.921923 0.437770 -93.720703 -38.300781 63.656059 -51.875000 -2.744141 -23.622581 21.298826 3.261719 1.171875 7.900391 2.021484 -0.098001 75.595703 26.503906 -0.205078 75.732422 3.222656 -35.000004 -16.894533 -11.767577 3.095703 -10.571718 13.870966 1.583064 31.190584 -1.475904 -2.294150 -27.062342 4.685001 -4.655165 -48.956810 -19.302492 -7.619452 51.428844 -0.195341 2.671639 -11.979674 -2.295727 6.479515 
6.276926 43.421242 49.157780 -13.017578 3.681641 -145.195313 21.972656 2.089844 -4.423828 -9.492188 -5.615235 -5.284158 -22.675781 -0.185547 -14.775422 17.568359 13.525392 -13.357090 -1.142578 10.976563 0.535250 -94.541016 -39.306641 64.153969 -52.724609 -2.744141 -24.277346 21.416016 2.324219 0.820313 7.900391 0.781250 -0.107555 76.406250 26.630857 -0.981951 76.972656 3.212891 -35.371639 -17.177734 -11.445313 2.871094 -11.064351 14.374805 1.738476 31.748499 -1.173109 -1.719875 -27.889532 6.944066 -3.491073 -51.554718 -19.645006 -5.079545 51.601292 -0.058597 2.577571 -8.948652 -1.805584 6.705683 
6.346141 43.094460 49.893017 -14.238280 3.691406 -145.888046 22.675783 2.207031 -4.208609 -9.492188 -5.791016 -5.108407 -24.794924 -0.537109 -14.765624 18.095701 13.886718 -13.369141 -0.625000 12.382813 0.449219 -95.312500 -39.677734 64.023438 -53.779297 -2.705079 -23.730467 21.923830 2.031250 0.615582 8.076172 -0.986328 -0.029129 77.646484 26.826172 -1.294420 78.437500 3.095703 -35.391155 -17.333986 -11.083984 2.861328 -10.643168 15.134600 1.532090 34.361954 -1.198593 -2.202888 -28.596550 11.798239 -0.672057 -54.898685 -20.008442 -2.594536 52.456257 -0.185459 2.905547 -5.570307 0.183040 7.143637 
6.319286 42.452606 50.641434 -14.941406 3.691406 -146.766953 22.851563 2.158203 -4.033203 -9.492188 -5.615235 -4.932596 -26.542969 -1.064453 -14.423830 18.447266 13.876952 -13.017578 0.185547 13.623041 0.593403 -96.240234 -39.863277 63.323818 -55.429691 -2.744141 -22.773438 21.826172 3.251953 1.132813 8.076172 -3.105469 0.088420 79.208984 26.718752 -1.060061 80.117188 3.232422 -34.981018 -17.333986 -11.083984 2.861328 -9.803455 16.765408 1.232010 38.409554 -0.744353 -2.637794 -27.678524 13.768259 0.616049 -58.862755 -20.750723 -0.362468 54.366337 -0.683341 3.240520 -2.456911 3.964999 7.062251 
6.181709 41.503742 51.401207 -15.126955 3.339844 -147.304703 23.203125 2.548828 -4.111328 -9.140625 -5.625000 -5.097656 -27.949217 -1.416016 -14.248288 18.623045 13.710937 -12.832032 0.986328 15.039063 0.732422 -97.558594 -40.019535 63.007813 -57.099609 -2.685547 -21.933596 21.552732 4.550781 1.484375 8.066406 -5.390625 0.235292 81.132813 26.474607 -0.332031 81.982422 3.134766 -34.833988 -18.242188 -10.996093 2.957124 -8.423772 18.732283 0.427472 42.802685 -0.930504 -2.556925 -25.488323 14.482233 -0.027368 -62.488895 -21.962666 1.380162 57.197857 -0.361115 3.018777 -0.776479 7.373581 6.777752 
5.948919 40.357979 52.199310 -14.765624 2.460938 -147.128494 23.730469 2.548828 -4.110894 -8.798827 -5.800781 -5.254894 -28.476561 -1.943359 -14.072597 18.281252 13.886720 -12.790626 1.279297 16.455078 0.768718 -98.613281 -39.208984 62.786793 -58.144531 -2.646484 -21.279297 21.132813 3.623047 1.181641 8.212891 -7.353516 0.186797 82.783203 25.302736 -0.132543 84.121094 3.183594 -34.512260 -18.974611 -10.908203 3.066406 -5.624032 19.987520 -0.160541 46.480991 0.074931 -3.060176 -22.272682 14.654871 -0.810454 -65.548759 -24.089203 1.537025 60.510250 -1.044721 3.288612 -0.869288 9.326509 7.159011 
5.622011 39.179375 53.101791 -13.896485 1.230469 -146.787109 24.433596 2.548828 -4.110894 -8.271484 -6.152344 -5.419922 -28.125000 -1.943359 -14.248378 17.919922 13.886719 -13.017578 1.396484 17.519531 0.908203 -99.599609 -38.076172 62.474449 -58.398438 -2.539063 -19.169920 20.683594 1.748047 0.537409 8.906250 -8.935546 0.351562 84.033203 23.554688 -0.669924 86.718750 3.144531 -34.434128 -19.208982 -11.201171 3.250057 -2.811680 21.540131 -1.231947 49.636360 0.055032 -3.372103 -17.482468 14.818951 -2.187116 -67.551414 -26.325878 2.500058 63.354500 -0.889619 3.151055 -2.402119 9.824248 7.353270 
5.260557 38.129921 54.211178 -12.490232 0.166016 -146.259750 24.785158 2.548828 -4.110893 -7.744141 -6.162110 -5.410156 -27.255861 -2.119127 -14.423742 17.919922 13.886719 -13.193360 1.376953 18.398438 0.878906 -100.517578 -36.406250 62.119137 -59.033203 -2.558594 -17.978079 19.931639 0.869141 0.078125 9.589844 -9.824219 0.439453 85.058594 21.455078 -1.425781 88.886719 3.232422 -34.238277 -19.541016 -11.005859 3.222656 -0.165038 22.813612 -2.069566 51.901638 0.365108 -3.514330 -13.630882 13.810305 -3.436574 -68.999039 -27.928118 3.646099 64.743340 -0.888639 3.382471 -2.904819 10.038172 7.476700 
4.852716 37.339756 55.623798 -10.898437 -0.361328 -145.908264 25.146484 2.666016 -3.896484 -7.216797 -5.986328 -5.401408 -25.673828 -1.943359 -14.599941 17.753906 13.886720 -13.317969 1.005859 18.916014 0.976563 -100.742188 -34.677734 61.972656 -60.009769 -2.480469 -18.691408 19.404297 0.693359 0.107540 10.283202 -10.195312 0.458984 85.644531 19.189453 -1.412806 90.615234 3.105469 -33.740234 -19.843748 -10.283202 3.162321 1.933842 23.677622 -2.980027 52.440723 0.064589 -3.648940 -9.996331 11.595140 -4.934042 -69.361870 -28.993002 4.393801 64.215530 -0.907143 3.368928 -0.926221 10.485710 7.062088 
